<?xml version="1.0" encoding="utf-8"?>
<!-- Generator: Adobe Illustrator 16.0.0, SVG Export Plug-In . SVG Version: 6.00 Build 0)  -->
<!DOCTYPE svg PUBLIC "-//W3C//DTD SVG 1.1//EN" "http://www.w3.org/Graphics/SVG/1.1/DTD/svg11.dtd">
<svg version="1.1" id="Capa_1" xmlns="http://www.w3.org/2000/svg" xmlns:xlink="http://www.w3.org/1999/xlink" x="0px" y="0px"
	 width="47.365px" height="46.583px" viewBox="0 0 47.365 46.583" enable-background="new 0 0 47.365 46.583" xml:space="preserve">
<g>
	<path id="path5050" fill="#040606" d="M41.864,15.116c-1.433-1.084-1.182,4.935-9.088,5.859c-2.595,0.303-4.909,0.053-6.966-0.435
		c-1.308-0.307-1.398-1.255-0.479-2.23c1.776-1.876,2.866-4.406,2.866-7.194c0-5.787-4.689-10.476-10.475-10.476
		c-4.196,0-7.813,2.465-9.486,6.026C7.666,7.883,6.409,8.718,5.087,8.495c-2.591-0.437-4.435-0.303-4.435,2.21
		c0,2.526,3.16,5.042,6.995,6.853c1.214,0.572,1.228,1.375,0.114,2.126c-3.789,2.545-6.285,6.868-6.285,11.776
		c0,7.832,6.391,13.367,14.183,14.182c11.06,1.157,24.18-0.738,29.136-10.688C48.339,27.836,46.747,18.817,41.864,15.116"/>
</g>
</svg>
